<svg id="logo" xmlns="http://www.w3.org/2000/svg" viewBox="0 0 183.58 34.33"><defs><style>.cls-1{fill:#b20b50;fill-rule:evenodd;}.cls-2{fill:#423a3a;}</style></defs><path id="dot" class="cls-1" d="M178.93,17.83a4.82,4.82,0,1,1-4.82,4.81A4.81,4.81,0,0,1,178.93,17.83Z" transform="translate(-0.17 -0.16)"/><path id="symphony" class="cls-2" d="M2.87,19.75s2.66,3.09,6.28,3.09c2,0,3.72-1.06,3.72-3.09C12.87,15.29.68,15.66.68,7.52.68,3.29,4.33.16,9.33.16c3,0,7.7,1.43,7.7,5.15V7.74H12.72V6.57c0-1.22-1.71-2-3.43-2C7.1,4.54,5.5,5.68,5.5,7.34c0,4.46,12.19,3.57,12.19,12.15,0,4.16-3.18,7.7-8.62,7.7a11.89,11.89,0,0,1-8.9-4.05Zm19,10.79A3.33,3.33,0,0,0,25,28.15l.62-1.44-6.2-14.1a.88.88,0,0,0-1-.67h-.55V8h3.07a2.26,2.26,0,0,1,2.44,1.77L27,19.12a18,18,0,0,1,.66,2.51h.07a22.61,22.61,0,0,1,.62-2.51l3.18-9.39A2.3,2.3,0,0,1,34,8h3.14v4H36.6a.93.93,0,0,0-1.06.67l-6.68,17a7,7,0,0,1-6.71,4.9,6.88,6.88,0,0,1-4.71-1.91l1.79-3.32A4,4,0,0,0,21.89,30.54ZM39,12.75a.72.72,0,0,0-.81-.81H36.72V8H41c1.65,0,2.45.78,2.45,2.1v.56c0,.4,0,.81,0,.81h.08a6.93,6.93,0,0,1,6-3.91,5.19,5.19,0,0,1,5.43,3.87H55a7.16,7.16,0,0,1,6.35-3.87c3.87,0,6.09,2.21,6.09,7.15V22a.74.74,0,0,0,.81.81h1.42v3.94H65.3c-1.75,0-2.48-.74-2.48-2.51V15.55c0-2.13-.4-3.75-2.56-3.75s-3.94,1.95-4.45,4.3a8.27,8.27,0,0,0-.29,2.4v8.25H50.88V15.55c0-2-.29-3.75-2.51-3.75s-3.91,1.95-4.49,4.34a9.35,9.35,0,0,0-.3,2.36v8.25H39Zm32.93,0a.72.72,0,0,0-.8-.81H69.66V8h4.12c1.72,0,2.34.78,2.34,1.81v.74h.07a6.57,6.57,0,0,1,5.92-3c5,0,8.28,4,8.28,9.84s-3.65,9.83-8.54,9.83a6.47,6.47,0,0,1-5.33-2.47h-.07s.07.67.07,1.62v7.77h-4.6ZM81,23.25c2.56,0,4.71-2.1,4.71-5.82s-1.9-5.89-4.64-5.89c-2.4,0-4.67,1.77-4.67,5.93C76.41,20.38,78,23.25,81,23.25ZM92.54,5.39a.71.71,0,0,0-.8-.81H90.28V.6H94.7c1.71,0,2.48.77,2.48,2.47V9.66a14.54,14.54,0,0,1-.08,1.58h.08a7.09,7.09,0,0,1,6.38-3.72c4.16,0,6.5,2.18,6.5,7.15V22a.73.73,0,0,0,.8.81h1.46v3.94h-4.41c-1.72,0-2.45-.74-2.45-2.51V15.63c0-2.29-.62-3.83-2.95-3.83a5.24,5.24,0,0,0-5,3.9,8.53,8.53,0,0,0-.29,2.43v8.62H92.54Zm30.23,2.13c5.69,0,10.22,4.09,10.22,9.84s-4.53,9.83-10.22,9.83-10.18-4.05-10.18-9.83S117.11,7.52,122.77,7.52Zm0,15.69a5.56,5.56,0,0,0,5.55-5.85,5.54,5.54,0,1,0-11.06,0A5.56,5.56,0,0,0,122.77,23.21Zm12.81-10.46a.72.72,0,0,0-.8-.81h-1.46V8h4.27c1.64,0,2.45.78,2.45,2.1v.56a4.87,4.87,0,0,1-.08.81H140a7.14,7.14,0,0,1,6.57-3.91c4.12,0,6.49,2.18,6.49,7.15V22a.74.74,0,0,0,.81.81h1.45v3.94H151c-1.75,0-2.48-.74-2.48-2.51V15.63c0-2.29-.59-3.83-2.92-3.83a5.1,5.1,0,0,0-5,3.83,7.84,7.84,0,0,0-.37,2.5v8.62h-4.6Zm23,17.79a3.32,3.32,0,0,0,3.06-2.39l.62-1.44L156,12.61a.87.87,0,0,0-1-.67h-.54V8h3.06A2.27,2.27,0,0,1,160,9.73l3.65,9.39a19,19,0,0,1,.65,2.51h.08a22.61,22.61,0,0,1,.62-2.51l3.17-9.39A2.31,2.31,0,0,1,170.66,8h3.14v4h-.55a.92.92,0,0,0-1.05.67l-6.68,17a7.05,7.05,0,0,1-6.72,4.9,6.84,6.84,0,0,1-4.7-1.91l1.78-3.32A4,4,0,0,0,158.55,30.54Z" transform="translate(-0.17 -0.16)"/></svg>